<?xml version="1.0" standalone="no"?>
<!DOCTYPE svg PUBLIC "-//W3C//DTD SVG 20010904//EN"
 "http://www.w3.org/TR/2001/REC-SVG-20010904/DTD/svg10.dtd">
<svg version="1.0" xmlns="http://www.w3.org/2000/svg"
 width="512.000000pt" height="512.000000pt" viewBox="0 0 512.000000 512.000000"
 preserveAspectRatio="xMidYMid meet">
<metadata>
Created by potrace 1.11, written by Peter Selinger 2001-2013
</metadata>
<g transform="translate(0.000000,512.000000) scale(0.100000,-0.100000)"
fill="#000000" stroke="none">
<path d="M226 4224 c-2 -5 -4 -155 -3 -332 l0 -322 36 -1 c47 -1 4601 -1 4623
0 15 1 16 30 16 319 0 174 -2 324 -4 332 -3 13 -271 15 -2334 15 -1630 0
-2331 -3 -2334 -11z"/>
<path d="M223 2565 l0 -335 2337 0 2338 0 -2 333 -1 332 -2336 3 -2336 2 0
-335z"/>
<path d="M244 1562 c-21 -3 -21 -4 -20 -335 l1 -332 1000 0 1000 0 0 334 0
335 -980 0 c-539 1 -990 0 -1001 -2z"/>
<path d="M2894 1230 l1 -335 1001 0 1002 0 -1 332 c0 238 -3 333 -11 334 -6 0
-457 1 -1002 2 l-990 2 0 -335z"/>
</g>
</svg>
